<svg xmlns="http://www.w3.org/2000/svg" viewBox="0 0 1040 260" width="1040" height="260">
  <defs>
    <linearGradient id="goldGrad" x1="0%" y1="0%" x2="100%" y2="100%">
      <stop offset="0%" style="stop-color:#C9A84C;stop-opacity:1" />
      <stop offset="100%" style="stop-color:#B8922A;stop-opacity:1" />
    </linearGradient>
    <linearGradient id="navyGrad" x1="0%" y1="0%" x2="100%" y2="100%">
      <stop offset="0%" style="stop-color:#1A3A5C;stop-opacity:1" />
      <stop offset="100%" style="stop-color:#0D2640;stop-opacity:1" />
    </linearGradient>
    <linearGradient id="blueGrad" x1="0%" y1="0%" x2="100%" y2="100%">
      <stop offset="0%" style="stop-color:#4A90C4;stop-opacity:1" />
      <stop offset="100%" style="stop-color:#2E6FA3;stop-opacity:1" />
    </linearGradient>
  </defs>

  <g transform="translate(0, 20)">
  <!-- Shield icon scaled 2x, centered at x=130 -->
  <path d="M 130 24 L 76 60 L 66 136 L 130 144 Z" fill="url(#navyGrad)" />
  <path d="M 130 24 L 184 60 L 194 136 L 130 144 Z" fill="url(#blueGrad)" />
  <path d="M 66 136 L 90 176 L 130 182 L 130 144 Z" fill="url(#navyGrad)" />
  <path d="M 194 136 L 170 176 L 130 182 L 130 144 Z" fill="url(#blueGrad)" />
  <path d="M 100 24 L 130 12 L 160 24 L 184 60 L 130 44 L 76 60 Z" fill="url(#goldGrad)" />

  <!-- Center dividing line -->
  <line x1="130" y1="40" x2="130" y2="182" stroke="white" stroke-width="3.5" opacity="0.55"/>

  <!-- Keyhole -->
  <circle cx="130" cy="92" r="15" fill="white" />
  <rect x="122" y="102" width="16" height="24" rx="3" fill="white" />
  </g>

  <!-- Gold divider -->
  <line x1="240" y1="36" x2="240" y2="200" stroke="#C9A84C" stroke-width="3" opacity="0.6"/>

  <!-- Wordmark: gap from divider(240) to K-left = 46px, so K-left=286, center=286+290=576 -->
  <text x="543" y="152"
    font-family="Georgia, 'Times New Roman', serif"
    font-size="104"
    font-weight="700"
    fill="#1A3A5C"
    text-anchor="middle"
    letter-spacing="-1">Keystone</text>

  <text x="543" y="194"
    font-family="'Trebuchet MS', Helvetica, sans-serif"
    font-size="27"
    font-weight="600"
    fill="#C9A84C"
    text-anchor="middle"
    letter-spacing="12">CONSULTING</text>
</svg>
